# xmcd
#
# Track frame offsets:
#       182
#       15775
#       35762
#       64100
#       82525
#       117487
#       175687
#       188175
#       206700
#       243937
#       270325
#       300825
#
# Disc length: 4311 seconds
#
# Revision: 0
# Processed by: cddbd v1.5.1PL2 Copyright (c) Steve Scherf et al.
# Submitted via: WhereIsIt 3.73
#
DISCID=8910d50c
DTITLE=Gary Moore and The Midnight Blues Band - Livin' Blues (Bootleg)
DYEAR=1990
DGENRE=Blues
TTITLE0=The Stumble
TTITLE1=All Your Love
TTITLE2=Midnight Blues
TTITLE3=You Don't Love Me
TTITLE4=Still Got The Blues
TTITLE5=Texas Strut
TTITLE6=Moving On
TTITLE7=Too Tired
TTITLE8=Cold, Cold Feeling
TTITLE9=Further On Up The Road
TTITLE10=King Of The Blues
TTITLE11=Stop Messin' Around
EXTD=Recorded live in Montreux 1990\nCD release 1991\nMetal Memories Record
EXTD=s MMR-CD 9101
EXTT0=
EXTT1=
EXTT2=
EXTT3=
EXTT4=
EXTT5=
EXTT6=
EXTT7=
EXTT8=
EXTT9=
EXTT10=
EXTT11=
PLAYORDER=
